{"accessors" : [{"bufferView" : 0, "byteOffset" : 0, "componentType" : 5123, "count" : 5310, "type" : "SCALAR", "max" : [5243], "min" : [0]}, {"bufferView" : 1, "byteOffset" : 0, "componentType" : 5126, "count" : 5244, "type" : "VEC3", "max" : [1.2133740186691284, 0.6046370267868042, 1.8883689641952515], "min" : [-1.2133740186691284, -0.6046370267868042, -1.8883689641952515], "name" : "POSITION"}, {"bufferView" : 1, "byteOffset" : 12, "componentType" : 5126, "count" : 5244, "type" : "VEC3", "max" : [0.9980179071426392, 0.9820956587791443, 1.0000044107437134], "min" : [-0.9992783665657043, -0.9979413151741028, -1.0000044107437134], "name" : "NORMAL"}, {"bufferView" : 1, "byteOffset" : 24, "componentType" : 5126, "count" : 5244, "type" : "VEC2", "max" : [0.993399977684021, 0.993399977684021], "min" : [0.006599999964237213, 0.006599999964237213], "name" : "TEXCOORD_0"}], "asset" : {"generator" : "Aspose.3D 23.2", "version" : "2.0"}, "buffers" : [{"uri" : "data:application/octet-stream;base64,", "byteLength" : 180548}], "bufferViews" : [{"buffer" : 0, "byteOffset" : 0, "byteLength" : 10620, "target" : 34963}, {"buffer" : 0, "byteOffset" : 10624, "byteLength" : 169920, "byteStride" : 32, "target" : 34962}], "images" : [{"uri" : "data:image/png;base64,"}], "materials" : [{"name" : "plane", "pbrMetallicRoughness" : {"baseColorFactor" : [1, 1, 1, 1], "baseColorTexture" : {"index" : 0, "texCoord" : 0}, "metallicFactor" : 0, "roughnessFactor" : 0.903921569}, "emissiveFactor" : [0, 0, 0], "alphaMode" : "OPAQUE", "doubleSided" : false}], "meshes" : [{"primitives" : [{"attributes" : {"POSITION" : 1, "NORMAL" : 2, "TEXCOORD_0" : 3}, "indices" : 0, "material" : 0, "mode" : 4}]}], "nodes" : [{"mesh" : 0, "name" : "PUSHILIN_Plane_Circle.000"}], "samplers" : [{"magFilter" : 9729, "minFilter" : 9986, "wrapS" : 10497, "wrapT" : 10497}], "scene" : 0, "scenes" : [{"nodes" : [0]}], "textures" : [{"sampler" : 0, "source" : 0, "name" : ""}]}